<svg width="140" height="42" viewBox="0 0 140 42" fill="none" xmlns="http://www.w3.org/2000/svg">
<path d="M15.7745 31.7009C13.7005 31.7064 11.6462 31.2987 9.73145 30.5015C7.81674 29.7044 6.08001 28.5338 4.62266 27.0581C1.66186 24.0794 0 20.0501 0 15.8502C0 11.6503 1.66186 7.62105 4.62266 4.64233C7.56005 1.68465 11.552 0.0148108 15.7204 9.80497e-05C19.8889 -0.0146148 23.8925 1.627 26.8507 4.56388L26.9291 4.64233C29.8913 7.62033 31.5541 11.6499 31.5541 15.8502C31.5541 20.0506 29.8913 24.0801 26.9291 27.0581C25.4714 28.534 23.7342 29.7047 21.819 30.5019C19.9038 31.299 17.849 31.7066 15.7745 31.7009ZM15.8361 10.476C14.7749 10.476 13.7375 10.7907 12.8551 11.3803C11.9727 11.9699 11.2849 12.8079 10.8788 13.7884C10.4727 14.7689 10.3664 15.8478 10.5735 16.8886C10.7805 17.9295 11.2915 18.8856 12.042 19.636C12.7924 20.3864 13.7485 20.8974 14.7893 21.1045C15.8302 21.3115 16.9091 21.2053 17.8895 20.7991C18.87 20.393 19.708 19.7053 20.2976 18.8229C20.8872 17.9405 21.2019 16.9031 21.2019 15.8418C21.2019 15.1372 21.0631 14.4394 20.7935 13.7884C20.5238 13.1374 20.1286 12.5459 19.6303 12.0476C19.1321 11.5494 18.5405 11.1541 17.8895 10.8845C17.2385 10.6148 16.5408 10.476 15.8361 10.476Z" fill="#AF8169"/>
<path d="M52.4721 31.7007C57.4119 31.7007 63.1588 29.0024 63.1588 22.4038C63.1588 16.5953 59.0315 15.2252 53.8226 13.1909C50.3566 11.8404 48.7174 11.053 48.737 9.16449C48.7567 7.27597 50.2949 6.13557 52.3796 6.13557C54.2681 6.13557 56.4481 7.04901 58.9586 9.10285L62.4022 4.59728C59.4546 2.17358 55.9577 0.76139 52.2339 0.800618C46.8177 0.862261 42.5419 4.57767 42.5419 9.43348C42.5419 15.1187 47.1063 17.237 51.6735 18.8341C55.3161 20.1006 56.9244 20.8879 56.9244 23.1099C56.9244 24.976 55.4702 26.3041 52.5841 26.3041C50.2193 26.3041 47.336 25.1217 45.0721 22.5271L41.4575 26.9486C42.8732 28.4459 44.5782 29.6401 46.4691 30.4589C48.36 31.2777 50.3975 31.704 52.4581 31.7119L52.4721 31.7007ZM84.5994 20.7871C84.5994 14.704 80.5114 10.2432 74.4087 10.2432C68.5245 10.2432 64.117 14.6423 64.117 20.9524C64.117 27.4249 68.7235 31.7007 74.8038 31.7007C78.9731 31.7007 82.002 30.0195 83.7701 27.778L80.1583 24.4156C79.5703 25.1645 78.816 25.7663 77.9553 26.1733C77.0945 26.5804 76.1508 26.7815 75.1988 26.7609C72.5426 26.7412 70.5728 25.2478 69.9087 22.7765H84.4565C84.568 22.1185 84.6168 21.4514 84.6022 20.7843L84.5994 20.7871ZM74.5964 15.1411C77.0033 15.1411 78.5192 16.5729 79.0796 18.7837H69.9143C70.556 16.3656 72.3212 15.1411 74.5824 15.1411H74.5964ZM101.557 0.0552928V12.9444H101.456C99.8982 11.1595 97.7183 10.2461 95.1881 10.2461C89.6262 10.2461 85.4148 14.7292 85.4148 21.0364C85.4148 27.4473 89.6178 31.7035 95.3534 31.7035C98.1161 31.7035 100.251 30.6864 101.705 28.8399H101.829V31.3617H107.11V0.0524902L101.557 0.0552928ZM96.3705 26.7188C93.2575 26.7188 91.0468 24.4156 91.0468 21.0532C91.0468 17.506 93.392 15.242 96.3705 15.242C99.5479 15.242 101.829 17.7329 101.829 21.0532C101.829 24.4576 99.4022 26.7188 96.3509 26.7188H96.3705ZM113.308 7.66544C114.125 7.66247 114.907 7.33567 115.483 6.75676C116.058 6.17786 116.381 5.39416 116.379 4.57769C116.378 3.76122 116.052 2.9787 115.475 2.40189C114.897 1.82509 114.114 1.50113 113.297 1.50113C112.481 1.50113 111.698 1.82509 111.12 2.40189C110.542 2.9787 110.217 3.76122 110.215 4.57769C110.214 5.39416 110.536 6.17786 111.112 6.75676C111.688 7.33567 112.47 7.66247 113.286 7.66544H113.308ZM110.512 31.3477H116.077V10.5963H110.512V31.3477ZM131.787 10.2432C130.523 10.2307 129.271 10.4957 128.121 11.0196C126.97 11.5434 125.948 12.3133 125.127 13.275H125.063V10.5963H119.501V31.3477H125.063V20.9075C125.063 17.2146 126.951 15.242 129.773 15.242C132.348 15.242 133.757 16.4664 133.757 20.4312V31.3589H139.333V19.0302C139.333 12.6389 136.251 10.232 131.799 10.232L131.787 10.2432Z" fill="#19191A"/>
<path d="M43.0936 34.8394H48.3417L47.885 36.5458H44.6571L44.4918 37.179H47.4983L47.1032 38.6837H44.0939L43.909 39.3589H47.1817L46.7333 41.0681H41.4404L43.0936 34.8394Z" fill="#AF8169"/>
<path d="M52.4297 34.8394H54.3546L55.7556 37.8094L56.5486 34.8394H58.5884L56.9352 41.0681H55.1056L53.6457 37.972L52.8191 41.0681H50.7905L52.4297 34.8394Z" fill="#AF8169"/>
<path d="M61.6284 38.4228C61.6284 36.3858 63.2087 34.7046 65.6885 34.7046C66.8513 34.7046 67.8432 35.2117 68.2663 35.7357L66.983 37.0723C66.5932 36.7156 66.0851 36.516 65.5568 36.5119C65.3122 36.4969 65.0673 36.5332 64.8376 36.6185C64.6079 36.7038 64.3986 36.8362 64.2231 37.0072C64.0476 37.1781 63.9099 37.3839 63.8187 37.6113C63.7274 37.8387 63.6848 38.0827 63.6935 38.3275C63.6884 38.4841 63.7162 38.64 63.7751 38.7852C63.834 38.9303 63.9227 39.0615 64.0355 39.1703C64.1482 39.2791 64.2825 39.363 64.4297 39.4167C64.5768 39.4704 64.7336 39.4926 64.8899 39.4819C65.0733 39.4881 65.2558 39.4546 65.4251 39.3839L65.6268 38.717H64.6181L64.9516 37.3833H67.9132L67.0418 40.5607C66.3227 40.9762 65.5075 41.1964 64.677 41.1996C63.1387 41.1996 61.6284 40.3814 61.6284 38.4228Z" fill="#AF8169"/>
<path d="M72.6458 34.8394H74.7025L73.0493 41.0681H70.9927L72.6458 34.8394Z" fill="#AF8169"/>
<path d="M78.8104 34.8394H80.7354L82.1363 37.8094L82.9265 34.8394H84.9747L83.3216 41.0681H81.4919L80.0349 37.972L79.2083 41.0681H77.1685L78.8104 34.8394Z" fill="#AF8169"/>
<path d="M89.0599 34.8394H94.3108L93.8541 36.5458H90.6262L90.4581 37.179H93.4646L93.0695 38.6837H90.063L89.8781 39.3589H93.1508L92.7025 41.0681H87.4067L89.0599 34.8394Z" fill="#AF8169"/>
<path d="M98.3991 34.8394H103.647L103.188 36.5458H99.9654L99.7973 37.179H102.804L102.409 38.6837H99.4022L99.2173 39.3589H102.487L102.039 41.0681H96.7432L98.3991 34.8394Z" fill="#AF8169"/>
<path d="M107.738 34.8394H110.136C111.271 34.8394 111.991 35.0887 112.406 35.5062C112.568 35.6799 112.694 35.884 112.776 36.1067C112.859 36.3293 112.897 36.5662 112.888 36.8035C112.888 37.7758 112.389 38.6108 111.176 38.9947L112.016 41.0681H109.8L109.113 39.2889H108.603L108.13 41.0681H106.073L107.738 34.8394ZM109.749 37.7926C110.436 37.7926 110.797 37.4732 110.797 37.0809C110.798 37.0203 110.787 36.9601 110.764 36.9039C110.742 36.8476 110.708 36.7963 110.666 36.7531C110.494 36.6163 110.276 36.5519 110.058 36.5738H109.329L109.001 37.7926H109.749Z" fill="#AF8169"/>
<path d="M117.444 34.8394H119.501L117.847 41.0681H115.796L117.444 34.8394Z" fill="#AF8169"/>
<path d="M123.608 34.8394H125.533L126.934 37.8094L127.725 34.8394H129.764L128.111 41.0681H126.284L124.825 37.972L123.984 41.0681H121.961L123.608 34.8394Z" fill="#AF8169"/>
<path d="M132.804 38.4228C132.804 36.3858 134.387 34.7046 136.867 34.7046C138.027 34.7046 139.022 35.2117 139.442 35.7357L138.159 37.0723C137.77 36.7156 137.263 36.5159 136.735 36.5119C136.491 36.4969 136.246 36.5332 136.016 36.6185C135.786 36.7038 135.577 36.8362 135.402 37.0072C135.226 37.1781 135.088 37.3839 134.997 37.6113C134.906 37.8387 134.863 38.0827 134.872 38.3275C134.864 38.4846 134.89 38.6414 134.948 38.7876C135.006 38.9338 135.094 39.066 135.207 39.1753C135.32 39.2846 135.455 39.3685 135.603 39.4214C135.751 39.4743 135.909 39.4949 136.066 39.4819C136.25 39.4883 136.433 39.4548 136.604 39.3839L136.805 38.717H135.794L136.127 37.3833H139.092L138.212 40.5607C137.493 40.9762 136.678 41.1964 135.847 41.1996C134.317 41.1996 132.804 40.3814 132.804 38.4228Z" fill="#AF8169"/>
</svg>
